<?xml version="1.0" standalone="no"?>
<!DOCTYPE svg PUBLIC "-//W3C//DTD SVG 20010904//EN"
 "http://www.w3.org/TR/2001/REC-SVG-20010904/DTD/svg10.dtd">
<svg version="1.0" xmlns="http://www.w3.org/2000/svg"
 width="800.000000pt" height="800.000000pt" viewBox="0 0 800.000000 800.000000"
 preserveAspectRatio="xMidYMid meet">

<g transform="translate(0.000000,800.000000) scale(0.100000,-0.100000)"
fill="#fbf7fb" stroke="none">
<path d="M3760 7490 c-14 -4 -48 -8 -77 -9 -28 -1 -55 -5 -58 -11 -3 -5 -18
-10 -33 -10 -32 -1 -118 -23 -128 -33 -4 -4 -18 -7 -30 -7 -13 0 -25 -4 -28
-9 -3 -5 -17 -12 -31 -15 -104 -26 -392 -199 -574 -344 -105 -84 -301 -278
-336 -332 -12 -19 -30 -41 -39 -49 -9 -7 -16 -18 -16 -24 0 -6 -7 -19 -16 -29
-19 -20 -41 -61 -117 -213 -89 -180 -187 -496 -232 -750 -48 -269 -64 -385
-71 -523 -7 -127 5 -539 27 -972 10 -198 21 -321 39 -442 5 -38 14 -96 19
-130 5 -35 12 -81 16 -103 3 -22 13 -83 22 -135 23 -150 50 -275 89 -414 l36
-129 -31 -24 c-34 -27 -91 -104 -91 -124 0 -7 -9 -22 -19 -33 -24 -26 -81
-133 -81 -152 0 -8 -4 -22 -10 -32 -9 -16 -48 -139 -99 -307 -12 -39 -21 -81
-21 -93 0 -12 -4 -30 -9 -40 -5 -9 -14 -37 -21 -62 -7 -25 -16 -53 -21 -62 -5
-10 -9 -33 -9 -52 0 -19 -5 -38 -10 -41 -6 -3 -10 -24 -10 -45 0 -21 -4 -41
-9 -44 -5 -3 -11 -23 -14 -43 -3 -21 -11 -63 -17 -93 -6 -30 -14 -72 -17 -93
-3 -20 -9 -40 -14 -43 -5 -3 -9 -17 -9 -32 0 -15 -16 -85 -35 -157 l-34 -130
37 -34 c64 -57 122 -94 126 -79 2 7 12 42 21 78 10 36 25 92 35 125 46 157 59
219 90 435 29 205 44 264 126 473 41 104 69 194 79 250 5 23 13 37 22 37 13 0
106 -60 156 -99 80 -64 168 -145 241 -220 48 -51 92 -89 96 -84 12 12 17 47 8
58 -66 86 -135 164 -243 275 -145 149 -163 172 -175 226 -9 41 11 94 46 125
43 38 127 90 166 105 79 29 77 29 121 -14 35 -33 133 -97 242 -156 12 -6 39
-26 62 -43 22 -18 45 -33 50 -33 23 0 95 93 81 105 -2 2 -28 15 -58 30 -127
64 -306 211 -272 223 11 3 115 -67 132 -88 3 -4 37 -28 75 -55 39 -26 84 -59
102 -72 40 -31 53 -26 123 38 l54 51 -30 27 c-17 14 -76 66 -132 114 -115 98
-174 170 -147 175 21 5 106 -38 148 -74 62 -53 186 -153 216 -174 33 -23 35
-23 63 -7 16 9 37 17 46 17 13 0 12 4 -5 23 -11 12 -26 38 -32 58 -12 39 -5
119 11 119 5 0 34 -12 63 -26 44 -20 61 -36 87 -80 35 -57 69 -74 60 -29 -5
31 -5 31 68 0 33 -14 70 -25 82 -25 13 0 43 -6 68 -14 83 -25 252 -39 422 -34
l165 4 71 37 c66 34 79 37 172 40 97 4 102 5 131 35 31 31 107 72 135 72 15 0
16 -9 11 -67 l-7 -68 43 -17 c23 -10 46 -18 51 -18 8 0 118 86 161 127 26 24
109 82 159 111 27 16 42 20 49 13 8 -8 -22 -43 -99 -119 -60 -60 -129 -125
-153 -145 -51 -42 -56 -29 42 -114 48 -42 49 -42 75 -26 31 19 134 97 154 116
90 83 147 112 119 58 -19 -35 -242 -201 -271 -201 -18 0 -11 -15 35 -69 25
-29 45 -47 45 -39 0 7 51 44 114 81 99 59 186 132 186 157 0 18 60 18 110 0
113 -41 210 -135 210 -203 0 -51 -76 -138 -313 -357 -32 -30 -63 -62 -68 -71
-10 -19 8 -82 21 -77 5 2 28 21 52 43 117 110 366 295 396 295 14 0 22 -16 35
-73 10 -39 37 -126 61 -192 81 -222 101 -303 142 -570 23 -154 50 -272 116
-511 l23 -82 80 64 c80 63 95 84 78 107 -13 17 -29 75 -58 212 -14 66 -30 143
-36 170 -6 28 -15 66 -19 85 -5 19 -16 73 -25 120 -9 47 -21 103 -26 125 -6
22 -13 55 -16 73 -3 18 -9 35 -14 38 -5 3 -9 20 -9 39 0 19 -4 37 -10 40 -5 3
-10 21 -10 40 0 19 -4 37 -10 40 -5 3 -10 17 -10 30 0 13 -4 27 -10 30 -5 3
-10 16 -10 29 0 12 -4 26 -8 31 -8 9 -43 113 -48 140 -1 6 -13 40 -28 76 -14
36 -26 70 -26 76 0 6 -17 30 -38 54 -22 24 -42 56 -45 71 -7 27 -128 158 -147
158 -18 0 -11 44 19 131 90 256 110 417 142 1189 17 400 -12 1346 -47 1560
-37 223 -67 338 -149 570 -26 72 -142 298 -192 375 -65 99 -106 159 -113 165
-3 3 -18 23 -34 45 -65 88 -344 345 -375 345 -4 0 -16 9 -26 20 -10 11 -24 20
-30 20 -7 0 -18 7 -25 15 -27 32 -194 105 -358 156 -224 69 -383 60 -496 -28
-36 -28 -58 -29 -82 -2 -21 24 -81 52 -139 67 -57 15 -205 22 -235 12z m435
-961 c75 -14 261 -86 377 -146 198 -102 291 -199 581 -605 48 -68 119 -166
157 -218 38 -52 83 -120 99 -150 115 -219 176 -624 126 -845 -10 -44 -22 -88
-27 -98 -5 -10 -30 -87 -55 -170 -83 -282 -190 -463 -398 -673 -236 -238 -436
-357 -660 -395 -53 -9 -162 -14 -325 -13 -217 0 -255 3 -333 22 -199 49 -390
167 -600 371 -197 191 -302 357 -408 642 -114 308 -118 323 -135 474 -9 87
-22 44 -24 -86 -3 -117 8 -255 22 -282 6 -12 5 -23 -3 -33 -10 -13 -10 -17 1
-24 8 -5 11 -12 7 -16 -3 -4 -13 -2 -21 5 -13 11 -88 2 -103 -13 -9 -8 17 -36
34 -36 7 0 16 -7 19 -15 8 -20 34 -19 49 2 12 15 15 14 38 -13 31 -34 32 -45
12 -87 -19 -40 -55 -57 -117 -57 -41 0 -52 5 -83 35 -30 31 -35 42 -35 84 0
52 17 94 45 115 17 12 17 18 -10 107 -42 140 -43 174 -10 209 23 24 29 41 34
98 7 69 21 102 47 102 9 0 11 10 7 35 -5 29 -1 41 17 60 27 29 45 32 54 8 11
-28 25 -1 35 67 9 62 23 106 89 270 36 91 178 411 236 535 131 276 277 436
518 564 149 80 304 127 507 155 63 9 116 18 119 21 8 8 54 6 117 -6z m1436
-2086 c6 -16 16 -39 23 -53 16 -34 9 -59 -20 -71 -50 -18 -60 -13 -63 35 -2
47 21 116 39 116 6 0 15 -12 21 -27z m-11 -213 c30 -58 26 -140 -7 -140 -27 0
-71 40 -78 69 -7 33 28 111 51 111 7 0 23 -18 34 -40z"/>
<path d="M3335 5801 c-71 -11 -152 -43 -237 -92 -122 -70 -209 -170 -95 -109
54 29 194 78 285 100 70 16 143 14 222 -6 105 -27 200 -3 200 51 0 20 -8 27
-51 39 -59 18 -253 28 -324 17z"/>
<path d="M4546 5795 c-91 -19 -110 -45 -60 -84 33 -26 125 -28 211 -6 73 19
125 19 194 0 30 -9 72 -20 94 -26 70 -20 99 -30 163 -61 35 -17 65 -28 68 -26
26 26 -141 139 -278 189 -80 29 -284 36 -392 14z"/>
<path d="M4740 5349 c-65 -18 -131 -53 -191 -101 -47 -39 -125 -192 -110 -217
9 -14 13 -11 69 53 18 20 36 35 41 32 5 -3 12 -25 15 -48 13 -81 24 -88 166
-94 119 -5 127 -4 170 19 35 18 49 22 62 13 47 -29 87 106 56 191 -6 18 -9 36
-5 39 19 19 158 -92 172 -137 6 -17 2 -27 -15 -41 -35 -29 -14 -35 33 -10 26
14 60 22 90 22 48 0 63 13 26 23 -16 4 -20 11 -16 27 4 14 0 23 -11 27 -9 3
-48 36 -87 73 -81 77 -150 116 -244 136 -87 18 -131 17 -221 -7z m-2 -136 c-3
-36 -5 -38 -39 -41 -49 -4 -69 19 -40 45 19 16 49 29 74 32 5 1 7 -16 5 -36z"/>
<path d="M3208 5344 c-89 -21 -152 -58 -239 -140 -44 -41 -86 -74 -94 -74 -17
0 -20 -16 -5 -25 16 -10 12 -23 -10 -30 -39 -12 -21 -27 24 -21 35 6 54 2 85
-13 22 -12 47 -21 56 -21 15 0 15 2 1 15 -8 8 -19 15 -24 15 -42 0 18 95 88
140 51 33 86 40 76 15 -16 -43 -17 -116 -2 -167 l15 -54 84 -12 c46 -7 111
-12 146 -12 52 0 68 4 98 27 34 26 36 26 49 9 19 -26 36 -9 52 51 8 26 15 54
18 60 5 20 27 6 64 -42 19 -24 40 -43 45 -41 31 10 -35 155 -97 212 -116 108
-271 147 -430 108z m126 -100 c22 -21 20 -43 -6 -71 -26 -28 -38 -29 -72 -2
-31 25 -33 42 -6 69 24 24 63 26 84 4z"/>
<path d="M3903 4481 c10 -50 61 -107 112 -127 51 -19 143 -16 189 7 39 19 84
76 92 117 8 39 -7 42 -24 5 -20 -47 -77 -76 -158 -81 -85 -5 -126 11 -180 71
l-37 41 6 -33z"/>
<path d="M3460 4228 c0 -21 115 -122 188 -166 137 -82 329 -142 450 -142 113
0 338 72 435 139 25 17 49 31 54 31 14 0 143 124 143 138 0 14 -26 16 -34 3
-16 -26 -108 -43 -266 -51 -135 -6 -176 -11 -225 -30 -88 -33 -118 -35 -178
-12 -64 26 -179 42 -300 42 -95 0 -168 14 -224 43 -38 20 -43 21 -43 5z"/>
<path d="M4553 2540 c-13 -15 -43 -42 -68 -58 -25 -17 -41 -33 -36 -37 14 -8
44 9 92 52 21 19 43 32 49 28 14 -9 13 8 -2 27 -12 14 -15 13 -35 -12z"/>
<path d="M3602 2475 c-28 -35 -121 -107 -164 -127 -29 -13 -38 -24 -43 -51 -4
-20 -14 -44 -24 -54 -43 -46 -71 -92 -66 -105 4 -9 -1 -18 -9 -21 -10 -4 -16
-19 -16 -39 l0 -33 15 28 c49 90 68 117 81 117 13 0 48 -75 73 -160 19 -65 66
-392 66 -462 0 -21 3 -38 7 -38 4 0 10 -9 13 -21 8 -24 72 -91 126 -132 41
-31 44 -30 79 46 34 71 48 60 78 -60 23 -95 27 -103 57 -118 18 -8 35 -15 37
-15 1 0 4 71 5 158 0 86 4 199 8 250 l7 92 34 0 c19 0 34 3 34 8 0 14 -40 227
-49 262 -13 52 -40 132 -51 152 -15 27 -12 46 10 58 11 6 20 17 20 25 0 8 4
15 8 15 8 0 11 -6 66 -205 49 -171 51 -175 80 -175 21 0 27 7 36 43 6 23 15
53 20 67 4 14 21 66 36 115 15 50 31 94 36 100 4 5 8 19 8 32 0 13 5 23 10 23
6 0 10 -9 10 -20 0 -11 6 -20 14 -20 25 0 23 -20 -12 -124 -41 -124 -73 -247
-66 -257 2 -4 0 -10 -6 -14 -5 -3 -10 -26 -10 -51 0 -43 1 -44 31 -44 l31 0
-6 -167 c-7 -215 -15 -294 -33 -315 -8 -9 -12 -21 -9 -27 4 -5 2 -12 -4 -16
-12 -7 -14 -35 -2 -35 4 0 25 18 47 40 22 21 45 39 52 40 6 0 18 19 27 43 39
107 47 277 20 462 -9 66 -17 131 -16 145 0 25 34 60 58 60 26 0 63 -96 74
-198 6 -53 15 -122 20 -152 5 -30 14 -90 19 -134 6 -43 12 -81 15 -83 9 -9 36
13 126 100 50 48 102 106 115 128 l25 39 -6 203 c-6 201 -6 202 20 271 39 100
58 134 65 116 3 -8 22 -42 41 -75 l35 -60 3 36 c3 31 -6 50 -52 118 -31 45
-56 90 -56 101 0 12 -21 30 -62 54 -35 19 -76 46 -93 60 l-30 24 -60 -43 c-74
-52 -123 -78 -138 -72 -7 2 -25 -3 -42 -11 -34 -18 -145 -32 -160 -20 -5 4
-26 21 -46 38 -20 16 -41 30 -45 30 -5 0 -26 -18 -47 -39 -48 -50 -113 -68
-172 -49 -42 14 -59 38 -26 38 11 0 23 5 26 10 4 6 -11 10 -39 10 -25 0 -48
-5 -51 -10 -4 -6 -11 -8 -16 -4 -5 3 -7 9 -4 14 3 5 -16 20 -43 34 -27 14 -63
36 -80 50 -37 32 -46 32 -70 1z m97 -49 c8 -9 19 -16 26 -16 6 0 20 -9 30 -20
15 -16 15 -20 3 -20 -23 0 -140 79 -133 90 7 12 55 -10 74 -34z"/>
<path d="M4408 2443 c-22 -5 -24 -29 -4 -36 18 -7 43 20 30 32 -5 4 -17 6 -26
4z"/>
<path d="M4325 2420 c3 -5 15 -10 25 -10 10 0 22 5 25 10 4 6 -7 10 -25 10
-18 0 -29 -4 -25 -10z"/>
<path d="M4921 2074 c0 -11 3 -14 6 -6 3 7 2 16 -1 19 -3 4 -6 -2 -5 -13z"/>
<path d="M4924 2027 c4 -15 3 -33 -1 -40 -4 -7 -9 -30 -10 -52 -2 -37 -10 -59
-34 -107 -5 -10 -5 -20 2 -23 6 -4 9 -52 9 -118 -2 -139 10 -307 21 -307 5 0
9 -20 9 -44 0 -25 4 -47 9 -50 4 -3 11 -23 15 -43 3 -21 13 -51 21 -67 9 -16
16 -50 18 -75 l2 -45 -43 -10 c-32 -7 -52 -5 -84 7 -30 12 -45 14 -54 6 -7 -6
-42 -17 -77 -24 -75 -16 -209 -83 -252 -127 -71 -72 -191 -102 -265 -64 -18 9
-37 16 -42 16 -4 0 -8 -144 -8 -320 l0 -320 36 0 37 0 -5 280 c-4 249 -3 280
11 281 103 3 167 30 236 97 22 21 54 46 72 55 l31 16 7 -47 c6 -45 37 -92 59
-92 29 0 36 -56 36 -297 0 -208 2 -243 15 -243 19 0 243 47 320 67 150 39 387
120 493 169 298 137 472 234 666 369 l99 69 -58 53 c-54 49 -189 125 -277 155
-21 8 -69 44 -113 87 -41 41 -78 71 -81 68 -13 -12 24 -174 54 -237 12 -26 17
-62 17 -135 0 -98 -1 -102 -42 -180 -49 -94 -90 -142 -130 -150 -15 -4 -38
-11 -51 -16 -38 -15 -93 -10 -141 13 -62 29 -90 61 -98 111 -6 38 -22 57 -169
202 -146 144 -164 166 -184 220 -73 201 -100 463 -65 628 8 37 17 94 21 127 6
54 5 60 -12 60 -14 0 -15 3 -6 12 17 17 15 49 -5 73 -15 19 -15 19 -9 -8z"/>
<path d="M3260 1995 c-2 -16 -4 -37 -5 -45 -1 -8 -6 -25 -13 -37 -12 -21 -5
-105 18 -213 13 -61 12 -212 -1 -306 -15 -109 -55 -259 -86 -324 -27 -56 -128
-160 -273 -281 -56 -48 -66 -62 -82 -114 -10 -33 -24 -67 -31 -75 -16 -20 -53
-40 -72 -40 -8 0 -24 -5 -35 -12 -15 -10 -30 -9 -72 2 -82 21 -129 52 -169
111 -90 136 -110 272 -56 378 15 30 27 61 27 68 0 7 5 22 12 32 9 15 9 25 0
45 -10 23 -9 29 9 47 11 11 17 24 14 29 -9 14 -65 -24 -125 -85 -30 -30 -60
-55 -66 -55 -10 0 -44 -15 -116 -51 -10 -5 -23 -9 -28 -9 -31 0 -214 -145
-204 -161 18 -30 467 -299 498 -299 3 0 -12 33 -34 73 -25 45 -40 85 -40 107
l0 35 21 -45 c38 -85 73 -155 80 -160 3 -3 8 -11 11 -19 8 -26 334 -161 529
-219 194 -58 493 -121 507 -108 3 3 -1 113 -8 243 -19 352 -21 373 -31 373 -5
0 -9 24 -9 54 0 39 4 55 15 60 8 3 15 2 15 -3 0 -5 9 -11 20 -14 12 -3 20 0
20 7 0 6 -21 17 -47 24 -27 8 -55 17 -63 21 -8 5 -32 2 -54 -6 -76 -26 -158
-4 -136 38 6 10 10 29 10 43 0 14 5 28 10 31 6 3 10 17 10 31 0 13 5 24 10 24
6 0 10 13 10 29 0 17 5 33 10 36 6 3 10 24 10 45 0 21 4 41 9 44 9 6 25 187
26 301 1 33 2 66 3 73 3 17 22 15 22 -2 0 -8 5 -18 10 -21 19 -11 10 41 -10
63 -11 12 -20 28 -20 35 0 8 -7 32 -16 53 -9 22 -20 71 -24 109 -4 39 -9 57
-10 40z m-874 -840 c-8 -8 -18 -24 -21 -35 -3 -11 -11 -20 -16 -20 -6 0 -2 14
8 32 24 43 37 58 41 47 2 -5 -3 -16 -12 -24z m-66 -212 c0 -54 -4 -93 -8 -87
-7 12 -4 184 4 184 2 0 4 -44 4 -97z m680 -241 c0 -5 -8 -17 -18 -28 -11 -11
-22 -26 -25 -34 -5 -13 -6 -13 -6 0 0 8 9 27 22 42 24 30 27 32 27 20z"/>
<path d="M4850 1777 c-16 -13 -20 -50 -7 -63 4 -4 7 0 7 8 0 9 7 21 15 28 16
13 21 40 8 40 -5 0 -15 -6 -23 -13z"/>
<path d="M4002 1634 c4 -21 22 -23 26 -1 2 10 -3 17 -13 17 -10 0 -15 -6 -13
-16z"/>
<path d="M4053 1563 c9 -2 25 -2 35 0 9 3 1 5 -18 5 -19 0 -27 -2 -17 -5z"/>
<path d="M3985 1350 c-4 -11 -4 -39 0 -60 12 -70 38 -40 31 35 -4 44 -21 57
-31 25z"/>
<path d="M4093 990 c0 -30 2 -43 4 -27 2 15 2 39 0 55 -2 15 -4 2 -4 -28z"/>
<path d="M3537 974 c3 -8 14 -14 25 -14 23 0 16 16 -11 23 -14 3 -18 1 -14 -9z"/>
<path d="M3652 920 c7 -11 16 -20 20 -20 3 0 19 -13 35 -30 15 -16 33 -30 40
-30 7 0 17 -8 22 -18 5 -10 42 -27 90 -42 l81 -24 0 -268 0 -268 35 0 34 0 3
310 c3 273 1 309 -12 304 -99 -41 -209 -19 -282 57 -43 45 -88 65 -66 29z"/>
</g>
</svg>
